# xmcd CD database file
#
# Track frame offsets:
#	150
#	15654
#	33500
#	49582
#	59675
#	72180
#	84342
#	106211
#	122566
#	137624
#	148610
#	161273
#	176676
#	186884
#	203074
#	214128
#	226055
#	239344
#	254957
#	265027
#
# Disc length: 3702 seconds
#
# Revision: 0
# Processed by: cddbd v1.4PL0 Copyright (c) Steve Scherf et al.
# Submitted via: CDex 1.50beta8
#
DISCID=1a0e7414
DTITLE=Wonderful World 2 - Wonderful World 2
DYEAR=2002
DGENRE=Jazz
TTITLE0=Barry Vhite-Your the first,the last,my everything
TTITLE1=Marvin Gaye-Let´s get it on
TTITLE2=Aretha Franklin-I say a littue prayer
TTITLE3=Marvin Gaye+Tammie Terrel-Ain´t nothing like the real thing
TTITLE4=Neil Sedaka-Laugheter in the real thing
TTITLE5=Joe Cocker-You are so beautiful
TTITLE6=Simon+Garfunkel-A bridge over trousled water
TTITLE7=The righteous brothers-Unchained melody
TTITLE8=Pery Como-And i love you so
TTITLE9=Marty Wilde-Sea of love
TTITLE10=Buddy Holly-Raining in my heart
TTITLE11=Tony Bennet-The way you look tonight
TTITLE12=Bing Crosby+Rosemary Cloony-They say it´s wonderful
TTITLE13=Johnny Mathis-Misty
TTITLE14=Patsy Cline-I can´t forget
TTITLE15=Doris Day-Singin´ in the rain
TTITLE16=Billif Holiday-East of the sun(West of the moon)
TTITLE17=Ella Fitzgerald-Satin doll
TTITLE18=Astrud Gilberto-Once i loved
TTITLE19=Dusty Srringfield-You don´t have to say you love me
EXTD=YEAR: 2002
EXTT0=
EXTT1=
EXTT2=
EXTT3=
EXTT4=
EXTT5=
EXTT6=
EXTT7=
EXTT8=
EXTT9=
EXTT10=
EXTT11=
EXTT12=
EXTT13=
EXTT14=
EXTT15=
EXTT16=
EXTT17=
EXTT18=
EXTT19=
PLAYORDER=
